<svg width="24" height="24" viewBox="0 0 24 24" fill="none" xmlns="http://www.w3.org/2000/svg">
<path d="M12 15.6C12.9548 15.6 13.8705 15.2207 14.5456 14.5456C15.2207 13.8705 15.6 12.9548 15.6 12C15.6 11.0452 15.2207 10.1295 14.5456 9.45442C13.8705 8.77929 12.9548 8.4 12 8.4C11.0452 8.4 10.1295 8.77929 9.45442 9.45442C8.77929 10.1295 8.4 11.0452 8.4 12C8.4 12.9548 8.77929 13.8705 9.45442 14.5456C10.1295 15.2207 11.0452 15.6 12 15.6ZM12 18C10.4087 18 8.88258 17.3679 7.75736 16.2426C6.63214 15.1174 6 13.5913 6 12C6 10.4087 6.63214 8.88258 7.75736 7.75736C8.88258 6.63214 10.4087 6 12 6C13.5913 6 15.1174 6.63214 16.2426 7.75736C17.3679 8.88258 18 10.4087 18 12C18 13.5913 17.3679 15.1174 16.2426 16.2426C15.1174 17.3679 13.5913 18 12 18ZM12 0C12.3183 0 12.6235 0.126428 12.8485 0.351472C13.0736 0.576516 13.2 0.88174 13.2 1.2V3.6C13.2 3.91826 13.0736 4.22348 12.8485 4.44853C12.6235 4.67357 12.3183 4.8 12 4.8C11.6817 4.8 11.3765 4.67357 11.1515 4.44853C10.9264 4.22348 10.8 3.91826 10.8 3.6V1.2C10.8 0.88174 10.9264 0.576516 11.1515 0.351472C11.3765 0.126428 11.6817 0 12 0V0ZM12 19.2C12.3183 19.2 12.6235 19.3264 12.8485 19.5515C13.0736 19.7765 13.2 20.0817 13.2 20.4V22.8C13.2 23.1183 13.0736 23.4235 12.8485 23.6485C12.6235 23.8736 12.3183 24 12 24C11.6817 24 11.3765 23.8736 11.1515 23.6485C10.9264 23.4235 10.8 23.1183 10.8 22.8V20.4C10.8 20.0817 10.9264 19.7765 11.1515 19.5515C11.3765 19.3264 11.6817 19.2 12 19.2ZM1.2 10.8H3.6C3.91826 10.8 4.22348 10.9264 4.44853 11.1515C4.67357 11.3765 4.8 11.6817 4.8 12C4.8 12.3183 4.67357 12.6235 4.44853 12.8485C4.22348 13.0736 3.91826 13.2 3.6 13.2H1.2C0.88174 13.2 0.576516 13.0736 0.351472 12.8485C0.126428 12.6235 0 12.3183 0 12C0 11.6817 0.126428 11.3765 0.351472 11.1515C0.576516 10.9264 0.88174 10.8 1.2 10.8ZM20.4 10.8H22.8C23.1183 10.8 23.4235 10.9264 23.6485 11.1515C23.8736 11.3765 24 11.6817 24 12C24 12.3183 23.8736 12.6235 23.6485 12.8485C23.4235 13.0736 23.1183 13.2 22.8 13.2H20.4C20.0817 13.2 19.7765 13.0736 19.5515 12.8485C19.3264 12.6235 19.2 12.3183 19.2 12C19.2 11.6817 19.3264 11.3765 19.5515 11.1515C19.7765 10.9264 20.0817 10.8 20.4 10.8ZM20.4852 3.5148C20.7102 3.73983 20.8365 4.045 20.8365 4.3632C20.8365 4.6814 20.7102 4.98657 20.4852 5.2116L18.7884 6.9084C18.6777 7.02301 18.5453 7.11443 18.3989 7.17732C18.2525 7.24021 18.095 7.27332 17.9357 7.2747C17.7763 7.27609 17.6183 7.24572 17.4709 7.18539C17.3234 7.12505 17.1894 7.03595 17.0767 6.92327C16.9641 6.8106 16.875 6.67662 16.8146 6.52915C16.7543 6.38167 16.7239 6.22365 16.7253 6.06432C16.7267 5.90498 16.7598 5.74752 16.8227 5.60111C16.8856 5.45471 16.977 5.3223 17.0916 5.2116L18.7884 3.5148C19.0134 3.28983 19.3186 3.16346 19.6368 3.16346C19.955 3.16346 20.2602 3.28983 20.4852 3.5148ZM6.9084 17.0916C7.13337 17.3166 7.25974 17.6218 7.25974 17.94C7.25974 18.2582 7.13337 18.5634 6.9084 18.7884L5.2116 20.484C5.1009 20.5986 4.96849 20.69 4.82209 20.7529C4.67568 20.8158 4.51822 20.8489 4.35888 20.8503C4.19955 20.8517 4.04153 20.8213 3.89406 20.761C3.74658 20.7006 3.6126 20.6115 3.49993 20.4989C3.38725 20.3862 3.29815 20.2522 3.23781 20.1047C3.17748 19.9573 3.14711 19.7993 3.1485 19.6399C3.14988 19.4806 3.18299 19.3231 3.24588 19.1767C3.30877 19.0303 3.40019 18.8979 3.5148 18.7872L5.2116 17.0904C5.43663 16.8654 5.7418 16.7391 6.06 16.7391C6.3782 16.7391 6.68337 16.8654 6.9084 17.0904V17.0916ZM5.2116 3.5148L6.9084 5.2116C7.12699 5.43792 7.24794 5.74105 7.24521 6.05568C7.24248 6.37032 7.11627 6.67129 6.89378 6.89378C6.67129 7.11627 6.37032 7.24248 6.05568 7.24521C5.74105 7.24794 5.43792 7.12699 5.2116 6.9084L3.516 5.2116C3.3063 4.98376 3.19279 4.68368 3.1992 4.37409C3.20562 4.0645 3.33146 3.76938 3.55042 3.55042C3.76938 3.33146 4.0645 3.20562 4.37409 3.1992C4.68368 3.19279 4.98376 3.3063 5.2116 3.516V3.5148ZM18.7884 17.0916L20.4852 18.7884C20.7038 19.0147 20.8247 19.3178 20.822 19.6325C20.8193 19.9471 20.6931 20.2481 20.4706 20.4706C20.2481 20.6931 19.9471 20.8193 19.6325 20.822C19.3178 20.8247 19.0147 20.7038 18.7884 20.4852L17.0916 18.7884C16.977 18.6777 16.8856 18.5453 16.8227 18.3989C16.7598 18.2525 16.7267 18.095 16.7253 17.9357C16.7239 17.7763 16.7543 17.6183 16.8146 17.4709C16.875 17.3234 16.9641 17.1894 17.0767 17.0767C17.1894 16.9641 17.3234 16.875 17.4709 16.8146C17.6183 16.7543 17.7763 16.7239 17.9357 16.7253C18.095 16.7267 18.2525 16.7598 18.3989 16.8227C18.5453 16.8856 18.6777 16.977 18.7884 17.0916Z" fill="white"/>
</svg>
